<svg xmlns="http://www.w3.org/2000/svg" viewBox="0 0 46.744 53.976" width="46.744" height="53.976"><polygon fill="none" stroke="#053b50" stroke-width="3" points="45.244,14.244 45.244,39.732 23.372,52.476 1.5,39.732 1.5,14.244 23.372,1.5"></polygon><path fill="#053b50" fill-rule="nonzero" d="M9.05 18.34L0 18.34L0 0.62L3.50 0.34L3.50 15.53L9.41 15.53L9.05 18.34ZM16.01 18.67Q13.82 18.67 12.32 17.46Q10.82 16.25 10.13 14.21L10.13 14.21L13.10 12.82L13.39 13.30Q14.09 14.50 14.72 15.17Q15.36 15.84 16.32 15.84L16.32 15.84Q16.94 15.84 17.44 15.24Q17.93 14.64 17.93 13.92L17.93 13.92Q17.93 13.25 17.59 12.70Q17.26 12.14 16.73 11.81L16.73 11.81L13.58 9.94Q12.22 9.17 11.40 7.99Q10.58 6.82 10.58 5.35L10.58 5.35Q10.58 3.79 11.32 2.57Q12.05 1.34 13.31 0.67Q14.57 0 16.15 0L16.15 0Q18 0 19.30 0.91Q20.59 1.82 21.22 3.62L21.22 3.62L18.24 4.97Q18.14 4.78 17.83 4.10Q17.52 3.43 17.08 3.13Q16.63 2.83 15.98 2.83L15.98 2.83Q15.19 2.83 14.77 3.34Q14.35 3.84 14.35 4.63L14.35 4.63Q14.35 5.21 14.68 5.68Q15 6.14 15.46 6.41L15.46 6.41L18.36 8.11Q21.58 9.94 21.74 12.91L21.74 12.91Q21.74 14.62 20.99 15.92Q20.23 17.23 18.92 17.95Q17.62 18.67 16.01 18.67L16.01 18.67Z" transform="translate(12.5, 17.652)"></path></svg>