<svg width="37" height="37" viewBox="0 0 37 37" fill="none" xmlns="http://www.w3.org/2000/svg">
<g clip-path="url(#clip0_111_48)">
<path d="M0 32.2292C0 34.8643 2.13596 37 4.7708 37H32.2292C34.8643 37 37 34.864 37 32.2292V4.7708C37 2.13567 34.864 0 32.2292 0H4.7708C2.13567 0 0 2.13596 0 4.7708V32.2292Z" fill="#563D7C"/>
<path d="M15.343 16.3664V11.1267H19.9552C20.3945 11.1267 20.8181 11.1633 21.226 11.2365C21.6339 11.3097 21.9947 11.4404 22.3084 11.6287C22.6222 11.8169 22.8732 12.0784 23.0615 12.4131C23.2497 12.7478 23.3438 13.1766 23.3438 13.6995C23.3438 14.6408 23.0615 15.3206 22.4967 15.7389C21.9319 16.1573 21.2103 16.3664 20.3318 16.3664H15.343ZM10.417 7.29883V29.7012H21.273C22.2771 29.7012 23.2549 29.5757 24.2067 29.3247C25.1584 29.0737 26.0055 28.6867 26.7481 28.1638C27.4907 27.6408 28.0816 26.9662 28.5208 26.14C28.9601 25.3138 29.1797 24.3359 29.1797 23.2064C29.1797 21.8049 28.8398 20.6074 28.16 19.6138C27.4802 18.6203 26.4501 17.9248 25.0695 17.5273C26.0735 17.0463 26.8318 16.4292 27.3443 15.6762C27.8567 14.9232 28.113 13.9819 28.113 12.8524C28.113 11.8065 27.9404 10.928 27.5953 10.2168C27.2501 9.50559 26.7638 8.9356 26.1363 8.5068C25.5088 8.07799 24.7558 7.76947 23.8772 7.58121C22.9987 7.39295 22.0261 7.29883 20.9593 7.29883H10.417ZM15.343 25.8733V19.7237H20.7083C21.7751 19.7237 22.6326 19.9694 23.2811 20.461C23.9295 20.9525 24.2537 21.7735 24.2537 22.924C24.2537 23.5097 24.1544 23.9908 23.9557 24.3673C23.7569 24.7438 23.4903 25.0419 23.1556 25.2615C22.8209 25.4811 22.4339 25.638 21.9947 25.7321C21.5554 25.8263 21.0952 25.8733 20.6141 25.8733H15.343Z" fill="white"/>
</g>
<defs>
<clipPath id="clip0_111_48">
<rect width="37" height="37" fill="white"/>
</clipPath>
</defs>
</svg>
