<svg width="44" height="44" viewBox="0 0 44 44" fill="none" xmlns="http://www.w3.org/2000/svg">
<g clip-path="url(#clip0_111_139)">
<path d="M22 44C34.1503 44 44 34.1503 44 22C44 9.84974 34.1503 0 22 0C9.84974 0 0 9.84974 0 22C0 34.1503 9.84974 44 22 44Z" fill="#7B68EE"/>
<path d="M12.8335 27.9022L16.2173 25.3086C18.0142 27.6547 19.9225 28.7358 22.049 28.7358C24.1635 28.7358 26.0197 27.6671 27.7359 25.3413L31.1665 27.8713C28.692 31.2271 25.6128 33 22.049 33C18.4972 33 15.3897 31.2383 12.8335 27.9022ZM22.0383 16.6371L16.0153 21.8281L13.2344 18.5977L22.0503 11L30.7992 18.6055L28.0028 21.8208L22.0383 16.6371Z" fill="white"/>
</g>
<defs>
<clipPath id="clip0_111_139">
<rect width="44" height="44" fill="white"/>
</clipPath>
</defs>
</svg>
