<svg width="42" height="42" viewBox="0 0 42 42" fill="none" xmlns="http://www.w3.org/2000/svg">
<path d="M3.39329 22.8548C2.36891 21.8304 2.36891 20.1696 3.39329 19.1452L19.1452 3.39329C20.1696 2.36891 21.8304 2.36891 22.8548 3.39329L38.6067 19.1452C39.6311 20.1696 39.6311 21.8304 38.6067 22.8548L22.8548 38.6067C21.8304 39.6311 20.1696 39.6311 19.1452 38.6067L3.39329 22.8548Z" fill="#EE513B"/>
<path d="M15.9454 6.64331L14.3503 8.23844L18.4701 12.3583C18.3035 12.7158 18.2104 13.1146 18.2104 13.5351C18.2104 14.7289 18.9605 15.7476 20.0151 16.1454V26.2236C18.9605 26.6214 18.2104 27.64 18.2104 28.8339C18.2104 30.3742 19.4591 31.6229 20.9995 31.6229C22.5398 31.6229 23.7885 30.3742 23.7885 28.8339C23.7885 27.7516 23.172 26.8131 22.271 26.3509V16.1592L26.2092 20.0973C26.0506 20.4476 25.9624 20.8365 25.9624 21.246C25.9624 22.7864 27.2111 24.0351 28.7515 24.0351C30.2918 24.0351 31.5405 22.7864 31.5405 21.246C31.5405 19.7057 30.2918 18.457 28.7515 18.457C28.4521 18.457 28.1639 18.5041 27.8935 18.5914L23.664 14.3618C23.745 14.1006 23.7885 13.8229 23.7885 13.5351C23.7885 11.9947 22.5398 10.746 20.9995 10.746C20.7116 10.746 20.434 10.7896 20.1727 10.8706L15.9454 6.64331Z" fill="white"/>
</svg>
