<svg width="40" height="40" viewBox="0 0 40 40" fill="none" xmlns="http://www.w3.org/2000/svg">
<g clip-path="url(#clip0_111_130)">
<path d="M31.7807 0.547852H8.21908C3.98238 0.547852 0.547852 3.98238 0.547852 8.21908V31.7807C0.547852 36.0174 3.98238 39.452 8.21908 39.452H31.7807C36.0174 39.452 39.452 36.0174 39.452 31.7807V8.21908C39.452 3.98238 36.0174 0.547852 31.7807 0.547852Z" fill="white" stroke="#013247"/>
<path d="M30.5033 27.314C29.1765 27.278 28.1631 27.4014 27.2967 27.7667C27.0505 27.8706 26.6579 27.8733 26.6177 28.1819C26.753 28.3237 26.774 28.5355 26.8816 28.7099C27.0885 29.0447 27.4377 29.4933 27.7493 29.7286C28.0898 29.9856 28.4407 30.2605 28.8058 30.483C29.455 30.879 30.1799 31.1051 30.8051 31.5017C31.1735 31.7355 31.5396 32.0299 31.899 32.2938C32.0767 32.4242 32.1962 32.6271 32.4271 32.7087C32.4271 32.6963 32.4271 32.6837 32.4271 32.6711C32.3058 32.5166 32.2745 32.3042 32.1631 32.1429C31.9997 31.9795 31.8362 31.816 31.6727 31.6524C31.1932 31.016 30.5844 30.457 29.9374 29.9926C29.4214 29.6222 28.2664 29.1219 28.0512 28.5214C28.0385 28.5087 28.0261 28.4961 28.0133 28.4835C28.3792 28.4424 28.8076 28.3099 29.1453 28.2195C29.7125 28.0674 30.2194 28.1067 30.8051 27.9555C31.0691 27.88 31.3332 27.8044 31.5974 27.7291C31.5974 27.6787 31.5974 27.6286 31.5974 27.5782C31.3012 27.2743 31.0901 26.8723 30.7673 26.5973C29.9226 25.878 29.0006 25.1593 28.0512 24.5601C27.5246 24.2277 26.8738 24.0117 26.3159 23.7301C26.1281 23.6354 25.7984 23.5861 25.6743 23.4282C25.3812 23.0545 25.2216 22.5809 24.9955 22.1456C24.5219 21.2337 24.0569 20.2378 23.6374 19.2784C23.3512 18.6242 23.1643 17.979 22.8075 17.3921C21.0945 14.5758 19.2506 12.8759 16.3943 11.2051C15.7866 10.8498 15.0549 10.7095 14.2816 10.5261C13.8668 10.501 13.4517 10.4757 13.0367 10.4506C12.7834 10.3448 12.5199 10.0349 12.2822 9.88472C11.336 9.28696 8.90897 7.98673 8.20813 9.69613C7.76561 10.7751 8.86947 11.828 9.26426 12.3747C9.54141 12.7583 9.8962 13.1883 10.0942 13.6196C10.2244 13.9031 10.247 14.1873 10.3584 14.4874C10.6327 15.2263 10.8712 16.0302 11.2259 16.7131C11.4053 17.0586 11.6029 17.4226 11.8296 17.7317C11.9686 17.9213 12.2068 18.0048 12.2444 18.2976C12.0115 18.6236 11.9982 19.1296 11.8673 19.5425C11.2777 21.4016 11.5001 23.7123 12.3577 25.0882C12.6209 25.5106 13.2407 26.4165 14.093 26.0691C14.8385 25.7654 14.672 24.8244 14.8853 23.9942C14.9335 23.8059 14.9039 23.6675 14.9984 23.5415C14.9984 23.554 14.9984 23.5666 14.9984 23.5792C15.2248 24.0319 15.4512 24.4846 15.6775 24.9372C16.1801 25.7466 17.072 26.5924 17.8278 27.1632C18.2197 27.4592 18.5283 27.9709 19.035 28.144C19.035 28.1314 19.035 28.119 19.035 28.1062C19.0222 28.1062 19.0098 28.1062 18.9972 28.1062C18.8991 27.9531 18.7454 27.8898 18.6201 27.7667C18.3248 27.4773 17.9965 27.1175 17.7523 26.7859C17.0649 25.8526 16.4574 24.8311 15.9039 23.7678C15.6396 23.2602 15.4098 22.7 15.187 22.1833C15.1011 21.9841 15.1021 21.6829 14.9231 21.5797C14.6791 21.9583 14.3196 22.2644 14.1308 22.7115C13.829 23.4261 13.79 24.2976 13.6782 25.2014C13.612 25.2251 13.6414 25.2087 13.6026 25.239C13.0772 25.1123 12.8925 24.5714 12.6974 24.1074C12.2034 22.9339 12.1117 21.0443 12.5463 19.6935C12.6587 19.3441 13.167 18.2433 12.9612 17.9204C12.8631 17.5982 12.5391 17.412 12.3577 17.1658C12.1333 16.8615 11.9093 16.4608 11.754 16.1094C11.3498 15.1944 11.1611 14.1673 10.7355 13.2424C10.5322 12.8003 10.1881 12.3529 9.90561 11.9598C9.59283 11.5244 9.24258 11.2036 9.00023 10.677C8.91401 10.4899 8.79687 10.1903 8.92477 9.99796C8.96544 9.86813 9.02275 9.81398 9.15115 9.77162C9.36998 9.6029 9.97939 9.82776 10.2073 9.92246C10.8123 10.1737 11.3172 10.413 11.8296 10.7525C12.0757 10.9156 12.3244 11.2311 12.6217 11.3184C12.7349 11.3184 12.8481 11.3184 12.9612 11.3184C13.4923 11.4405 14.0873 11.3563 14.5834 11.507C15.4604 11.7735 16.2463 12.1881 16.9601 12.6388C19.1345 14.0117 20.9123 15.9662 22.1285 18.2976C22.3241 18.673 22.4088 19.0313 22.5811 19.4294C22.9288 20.2323 23.3668 21.0586 23.7127 21.8437C24.0579 22.6271 24.3943 23.4177 24.8822 24.0697C25.1389 24.4123 26.1296 24.5962 26.5799 24.7864C26.8955 24.9198 27.4127 25.0588 27.7117 25.239C28.2827 25.5835 28.836 25.9936 29.3717 26.3709C29.6394 26.5595 30.4622 26.9731 30.5033 27.314Z" fill="#00618A"/>
<path fill-rule="evenodd" clip-rule="evenodd" d="M13.6403 12.9407C13.3637 12.9356 13.1681 12.9709 12.9612 13.016C12.9612 13.0286 12.9612 13.0413 12.9612 13.0538C12.9738 13.0538 12.9864 13.0538 12.999 13.0538C13.1309 13.3249 13.3639 13.4994 13.5271 13.7329C13.6528 13.997 13.7785 14.2611 13.9044 14.525C13.9168 14.5125 13.9296 14.4999 13.942 14.4874C14.1756 14.3228 14.2827 14.0594 14.2815 13.6574C14.1879 13.5589 14.1741 13.4354 14.0929 13.3178C13.985 13.1613 13.7763 13.0723 13.6403 12.9407Z" fill="#00618A"/>
</g>
<defs>
<clipPath id="clip0_111_130">
<rect width="40" height="40" fill="white"/>
</clipPath>
</defs>
</svg>
