<svg width="42" height="42" viewBox="0 0 42 42" fill="none" xmlns="http://www.w3.org/2000/svg">
<g clip-path="url(#clip0_111_123)">
<path d="M41.2057 25.1499C40.9615 24.4104 40.3219 23.8952 39.4945 23.7715C39.1045 23.7133 38.6577 23.7382 38.1291 23.8472C37.2077 24.0373 36.5241 24.1096 36.0252 24.1237C37.9082 20.9442 39.4395 17.3185 40.321 13.9055C41.7464 8.38689 40.9847 5.8728 40.0946 4.73554C37.739 1.72568 34.3022 0.108624 30.1558 0.0590548C27.9442 0.0320601 26.0023 0.468773 24.9895 0.78274C24.0464 0.616445 23.0322 0.523515 21.9682 0.506302C19.9738 0.474511 18.2116 0.909249 16.7058 1.8028C15.872 1.521 14.5342 1.12361 12.9891 0.869932C9.35503 0.27332 6.42624 0.73825 4.28396 2.25165C1.68983 4.0841 0.487204 7.26778 0.709652 11.7144C0.780196 13.1262 1.57 17.4216 2.81346 21.4953C3.52811 23.8367 4.29017 25.7812 5.07847 27.275C6.19636 29.3933 7.3925 30.6408 8.73537 31.0887C9.48812 31.3396 10.8556 31.5151 12.2941 30.3174C12.4764 30.538 12.7195 30.7575 13.0424 30.9612C13.4523 31.2197 13.9536 31.431 14.4542 31.5562C16.2585 32.0073 17.9486 31.8944 19.3904 31.2623C19.3992 31.5187 19.4061 31.7637 19.4119 31.9752C19.4215 32.3184 19.4309 32.6549 19.4435 32.9695C19.5289 35.0973 19.6737 36.7517 20.1026 37.9092C20.1261 37.973 20.1578 38.0699 20.1913 38.1727C20.4052 38.8279 20.7631 39.9247 21.6733 40.7837C22.616 41.6734 23.7562 41.9464 24.8004 41.9463C25.3242 41.9463 25.8239 41.8776 26.2621 41.7836C27.8245 41.4489 29.5988 40.9387 30.8823 39.1112C32.0958 37.3834 32.6857 34.7812 32.7925 30.6808C32.8063 30.5649 32.8191 30.4542 32.8314 30.3487C32.8397 30.2775 32.8482 30.2047 32.8567 30.1321L33.1427 30.1572L33.2163 30.1622C34.8076 30.2347 36.7533 29.8972 37.9482 29.3422C38.8925 28.9039 41.9181 27.3066 41.2057 25.1499Z" fill="black"/>
<path d="M38.4848 25.5693C33.7535 26.5453 33.4282 24.9434 33.4282 24.9434C38.4238 17.5308 40.5121 8.12169 38.7099 5.81886C33.7935 -0.46283 25.2829 2.508 25.1408 2.58513L25.0951 2.59332C24.1604 2.39927 23.1143 2.28367 21.9385 2.26449C19.7977 2.2294 18.1738 2.82573 16.9415 3.7602C16.9415 3.7602 1.75944 -2.49421 2.46554 11.6263C2.61575 14.6303 6.77115 34.3562 11.7276 28.398C13.5391 26.2194 15.2895 24.3772 15.2895 24.3772C16.1588 24.9548 17.1996 25.2493 18.2907 25.1435L18.3754 25.0716C18.3491 25.3421 18.3611 25.6067 18.4094 25.9199C17.1325 27.3465 17.5077 27.5969 14.9553 28.1224C12.3725 28.6546 13.8898 29.6023 14.8804 29.8499C16.0813 30.1503 18.8597 30.5757 20.737 27.9477L20.6622 28.2475C21.1625 28.6482 21.5138 30.854 21.4549 32.8535C21.396 34.8531 21.3567 36.2259 21.7509 37.2981C22.1451 38.3704 22.538 40.783 25.8934 40.064C28.6972 39.4632 30.1501 37.9061 30.3522 35.3089C30.4957 33.4624 30.8203 33.7354 30.8408 32.0846L31.1011 31.303C31.4014 28.8 31.1488 27.9926 32.8762 28.3681L33.296 28.405C34.5674 28.4628 36.2314 28.2005 37.208 27.7466C39.3109 26.7706 40.5581 25.1412 38.4846 25.5693H38.4848Z" fill="#336791"/>
<path d="M17.8303 12.9698C17.404 12.9104 17.0178 12.9654 16.8225 13.1132C16.7125 13.1965 16.6786 13.2929 16.6694 13.3593C16.6449 13.5351 16.7681 13.7294 16.8437 13.8297C17.0578 14.1135 17.3706 14.3085 17.6803 14.3515C17.7252 14.3577 17.7697 14.3607 17.8141 14.3607C18.3305 14.3607 18.7999 13.9587 18.8412 13.662C18.893 13.2903 18.3535 13.0426 17.8303 12.9698Z" fill="white"/>
<path d="M31.9551 12.9816C31.9145 12.6903 31.3959 12.6072 30.904 12.6756C30.4128 12.7441 29.9364 12.9658 29.9762 13.2577C30.0082 13.4848 30.418 13.8724 30.9033 13.8723C30.9443 13.8723 30.9856 13.8696 31.0273 13.8638C31.3512 13.8189 31.5889 13.6132 31.7018 13.4946C31.8738 13.314 31.9733 13.1125 31.9551 12.9816Z" fill="white"/>
<path d="M40.0593 25.4585C39.8789 24.913 39.2983 24.7373 38.3335 24.9367C35.4691 25.5278 34.4433 25.1183 34.1064 24.8702C36.3329 21.4783 38.1645 17.3784 39.1526 13.553C39.6207 11.7409 39.8793 10.0581 39.9004 8.68657C39.9237 7.18088 39.6674 6.07466 39.1385 5.39885C37.0063 2.67436 33.877 1.21297 30.089 1.17281C27.4849 1.14356 25.2847 1.81005 24.8582 1.99742C23.9599 1.77403 22.9807 1.63689 21.9147 1.6194C19.9597 1.58779 18.2699 2.05583 16.8708 3.00977C16.2631 2.78365 14.6925 2.24451 12.772 1.93515C9.45131 1.40043 6.8127 1.80554 4.92965 3.13957C2.68278 4.73141 1.6455 7.57687 1.84651 11.5967C1.91414 12.9493 2.68466 17.1098 3.90084 21.0943C5.50162 26.3385 7.2416 29.3074 9.07254 29.918C9.28681 29.9895 9.53399 30.0395 9.80639 30.0395C10.4743 30.0395 11.2931 29.7384 12.1451 28.7142C13.5602 27.0118 14.8814 25.5852 15.3684 25.0668C16.0882 25.4532 16.8787 25.6689 17.6875 25.6905C17.6889 25.7117 17.6911 25.7329 17.693 25.7539C17.5307 25.9464 17.3976 26.115 17.2842 26.259C16.7239 26.9703 16.6073 27.1183 14.8036 27.4898C14.2906 27.5956 12.9278 27.8764 12.908 28.8316C12.8862 29.8752 14.5186 30.3135 14.7047 30.36C15.3528 30.5222 15.9772 30.6023 16.5727 30.6023C18.021 30.6022 19.2954 30.1262 20.3139 29.2053C20.2825 32.9258 20.4377 36.5919 20.8844 37.7089C21.2502 38.6233 22.144 40.8581 24.9674 40.8579C25.3815 40.8579 25.8376 40.8098 26.3392 40.7022C29.2857 40.0705 30.5652 38.7682 31.0602 35.8972C31.3251 34.3628 31.7796 30.6987 31.9933 28.7333C32.4445 28.874 33.0254 28.9385 33.6534 28.9384C34.963 28.9384 36.4742 28.6601 37.4219 28.2202C38.4865 27.7259 40.4077 26.5125 40.0593 25.4585ZM33.0425 12.1775C33.0327 12.7577 32.9528 13.2844 32.8682 13.8343C32.7771 14.4256 32.6829 15.037 32.6592 15.7792C32.6358 16.5015 32.726 17.2525 32.8132 17.9786C32.9895 19.4453 33.1704 20.9554 32.4701 22.4455C32.3613 22.2522 32.2562 22.0413 32.1599 21.8078C32.0729 21.5968 31.884 21.2579 31.6224 20.7889C30.6043 18.9632 28.2203 14.6879 29.4407 12.9433C29.8041 12.4239 30.7267 11.8901 33.0425 12.1775ZM30.2355 2.34779C33.6295 2.42275 36.3142 3.69244 38.2151 6.12141C39.673 7.98452 38.0676 16.462 33.4201 23.7755C33.3742 23.7172 33.3275 23.6583 33.2791 23.5979C33.2598 23.5737 33.2402 23.5492 33.2203 23.5244C34.4213 21.541 34.1864 19.5786 33.9774 17.8387C33.8915 17.1247 33.8105 16.4503 33.8311 15.8169C33.8524 15.1454 33.9412 14.5696 34.027 14.0128C34.1326 13.3266 34.2399 12.6166 34.2103 11.7796C34.2324 11.6918 34.2413 11.5881 34.2298 11.465C34.1541 10.6623 33.2378 8.26029 31.37 6.08595C30.3484 4.89686 28.8585 3.56603 26.8242 2.66843C27.6992 2.48709 28.8958 2.31797 30.2355 2.34779ZM11.2435 27.9646C10.3049 29.0931 9.65664 28.8769 9.44351 28.8058C8.05455 28.3425 6.44305 25.407 5.0222 20.752C3.79276 16.7241 3.07425 12.6739 3.01744 11.5381C2.83788 7.94623 3.70858 5.44287 5.60546 4.09765C8.69245 1.90844 13.7678 3.21877 15.8072 3.88338C15.7779 3.91226 15.7474 3.93935 15.7183 3.96869C12.3718 7.34849 12.4512 13.1229 12.4594 13.4758C12.4591 13.612 12.4705 13.8048 12.4862 14.0701C12.5438 15.0412 12.6509 16.8489 12.3647 18.8959C12.0986 20.7982 12.6849 22.6601 13.9732 24.0042C14.1065 24.1433 14.2458 24.2739 14.3896 24.3969C13.8161 25.011 12.5699 26.3689 11.2435 27.9646ZM14.8197 23.1929C13.7814 22.1096 13.3099 20.6027 13.5258 19.0583C13.8281 16.8958 13.7165 15.0125 13.6566 14.0007C13.6482 13.8591 13.6408 13.7351 13.6363 13.6371C14.1253 13.2037 16.3908 11.9897 18.0065 12.3599C18.7439 12.5289 19.193 13.0308 19.3798 13.8945C20.3466 18.3654 19.5078 20.2288 18.8339 21.7263C18.695 22.0348 18.5638 22.3263 18.4517 22.6281L18.3648 22.8613C18.1449 23.4509 17.9404 23.9991 17.8136 24.5197C16.7099 24.5163 15.6361 24.0449 14.8197 23.1929ZM14.9891 29.2225C14.6669 29.142 14.377 29.0021 14.2069 28.8862C14.3489 28.8193 14.6018 28.7284 15.0402 28.6381C17.162 28.2012 17.4896 27.893 18.2052 26.9844C18.3694 26.7762 18.5553 26.54 18.8128 26.2523L18.8131 26.252C19.1968 25.8225 19.3722 25.8953 19.6904 26.0273C19.9483 26.134 20.1995 26.4572 20.3013 26.8129C20.3495 26.9809 20.4037 27.2999 20.2265 27.5479C18.7317 29.6409 16.5535 29.614 14.9891 29.2225ZM26.0934 39.5559C23.4977 40.112 22.5787 38.7876 21.973 37.2735C21.5821 36.296 21.39 31.8881 21.5263 27.0205C21.5281 26.9557 21.5189 26.8932 21.501 26.8344C21.4855 26.7208 21.4616 26.606 21.4285 26.4904C21.2257 25.7821 20.7318 25.1897 20.1393 24.9441C19.9038 24.8465 19.4716 24.6676 18.9523 24.8004C19.0631 24.3441 19.2552 23.8289 19.4634 23.271L19.5507 23.0362C19.6491 22.7716 19.7724 22.4975 19.903 22.2075C20.6082 20.6406 21.5741 18.4947 20.5258 13.6466C20.1331 11.8308 18.822 10.9442 16.8342 11.1501C15.6425 11.2734 14.5524 11.7542 14.0086 12.0299C13.8917 12.0891 13.7848 12.1463 13.6849 12.2021C13.8366 10.3725 14.4101 6.95335 16.555 4.79011C17.9054 3.42814 19.704 2.75553 21.8953 2.79174C26.2131 2.86247 28.9819 5.0783 30.5445 6.92476C31.8909 8.51595 32.6201 10.1187 32.9111 10.9831C30.7228 10.7606 29.2345 11.1927 28.48 12.2712C26.8387 14.6174 29.378 19.1713 30.5984 21.3599C30.8221 21.7611 31.0153 22.1077 31.0761 22.255C31.4735 23.2181 31.988 23.8611 32.3636 24.3305C32.4788 24.4744 32.5905 24.6138 32.6755 24.7357C32.0127 24.9268 30.8222 25.3682 30.9307 27.5749C30.8432 28.6822 30.2209 33.8664 29.9049 35.698C29.4876 38.1177 28.5972 39.0191 26.0934 39.5559ZM36.9282 27.1568C36.2505 27.4714 35.1164 27.7074 34.0389 27.758C32.8489 27.8138 32.2432 27.6247 32.1007 27.5085C32.0337 26.1334 32.5457 25.9896 33.0873 25.8375C33.1725 25.8136 33.2555 25.7903 33.3356 25.7623C33.3855 25.8028 33.4401 25.8431 33.4998 25.8825C34.4563 26.5138 36.1623 26.5819 38.5707 26.0848C38.5795 26.0829 38.5883 26.0812 38.5971 26.0795C38.2723 26.3832 37.7164 26.7908 36.9282 27.1568Z" fill="white"/>
</g>
<defs>
<clipPath id="clip0_111_123">
<rect width="42" height="42" fill="white"/>
</clipPath>
</defs>
</svg>
