<svg width="46" height="46" viewBox="0 0 46 46" fill="none" xmlns="http://www.w3.org/2000/svg">
<path fill-rule="evenodd" clip-rule="evenodd" d="M18.7111 2.875C15.5527 2.875 12.9925 5.35401 12.9925 8.41203V12.2454H22.89V13.3102H8.59358C5.43529 13.3102 2.875 15.7892 2.875 18.8472V27.1528C2.875 30.2108 5.43529 32.6898 8.59358 32.6898H11.8928V28.0047C11.8928 24.9467 14.4531 22.4676 17.6114 22.4676H28.1687C30.8411 22.4676 33.0074 20.37 33.0074 17.7825V8.41203C33.0074 5.35401 30.4473 2.875 27.2889 2.875H18.7111ZM17.3914 9.68981C18.4847 9.68981 19.3709 8.83168 19.3709 7.77315C19.3709 6.71461 18.4847 5.85648 17.3914 5.85648C16.2981 5.85648 15.4119 6.71461 15.4119 7.77315C15.4119 8.83168 16.2981 9.68981 17.3914 9.68981Z" fill="url(#paint0_linear_111_120)"/>
<path fill-rule="evenodd" clip-rule="evenodd" d="M27.2886 43.1251C30.4469 43.1251 33.0072 40.6461 33.0072 37.5881V33.7547H23.1096V32.69H37.4061C40.5645 32.69 43.1246 30.2109 43.1246 27.1529V18.8473C43.1246 15.7893 40.5645 13.3103 37.4061 13.3103H34.1069V17.9954C34.1069 21.0536 31.5466 23.5325 28.3884 23.5325H17.831C15.1585 23.5325 12.9922 25.6301 12.9922 28.2176V37.5881C12.9922 40.6461 15.5525 43.1251 18.7107 43.1251H27.2886ZM28.6083 36.3103C27.515 36.3103 26.6288 37.1684 26.6288 38.2269C26.6288 39.2855 27.515 40.1436 28.6083 40.1436C29.7016 40.1436 30.5878 39.2855 30.5878 38.2269C30.5878 37.1684 29.7016 36.3103 28.6083 36.3103Z" fill="url(#paint1_linear_111_120)"/>
<defs>
<linearGradient id="paint0_linear_111_120" x1="17.9413" y1="2.875" x2="17.9413" y2="32.6898" gradientUnits="userSpaceOnUse">
<stop stop-color="#327EBD"/>
<stop offset="1" stop-color="#1565A7"/>
</linearGradient>
<linearGradient id="paint1_linear_111_120" x1="28.0585" y1="13.3103" x2="28.0585" y2="43.1251" gradientUnits="userSpaceOnUse">
<stop stop-color="#FFDA4B"/>
<stop offset="1" stop-color="#F9C600"/>
</linearGradient>
</defs>
</svg>
