<svg width="64" height="64" viewBox="0 0 64 64" fill="none" xmlns="http://www.w3.org/2000/svg">
<g clip-path="url(#clip0_111_56)">
<path d="M32.0009 36.4331C34.4741 36.4331 36.4789 34.4282 36.4789 31.9551C36.4789 29.4819 34.4741 27.4771 32.0009 27.4771C29.5278 27.4771 27.5229 29.4819 27.5229 31.9551C27.5229 34.4282 29.5278 36.4331 32.0009 36.4331Z" fill="#00D8FF"/>
<path fill-rule="evenodd" clip-rule="evenodd" d="M32.3299 22.5161C39.9649 22.5681 48.2949 23.1251 54.0129 28.2241C54.1809 28.3741 54.3429 28.5301 54.5009 28.6911C55.8499 30.0661 56.5549 32.2861 55.4659 34.1131C53.2319 37.8641 48.2359 39.5001 43.3989 40.5071C36.1649 42.0131 28.6009 42.0251 21.3699 40.6991C17.2089 39.9351 12.9539 38.5961 9.99694 35.7951C8.84594 34.7051 7.86194 33.2711 8.01594 31.6751C8.26594 29.0931 10.7429 27.4361 12.8279 26.3141C18.6189 23.1981 25.6749 22.5011 32.3299 22.5161ZM31.7759 23.6891C24.5519 23.7381 16.7329 24.1991 11.1549 28.8181C10.9599 28.9791 10.7719 29.1481 10.5909 29.3251C10.4739 29.4391 10.3609 29.5581 10.2519 29.6801C9.27294 30.7801 8.93594 32.5471 9.85994 33.8681C10.7899 35.1971 12.2019 36.1561 13.6559 36.9381C19.0939 39.8621 25.5199 40.3811 31.7849 40.4031C38.1279 40.4261 44.6689 39.8481 50.2719 36.9511C52.5039 35.7961 55.0159 34.1001 54.9269 31.9161C54.8449 29.9121 52.8909 28.6741 51.4279 27.7901C51.0319 27.5511 50.6249 27.3301 50.2119 27.1221C44.6499 24.3351 38.1319 23.6751 31.7759 23.6891Z" fill="#00D8FF"/>
<path fill-rule="evenodd" clip-rule="evenodd" d="M42.1149 10.703C44.9079 10.774 46.3549 14.132 46.5459 16.612C46.5839 17.105 46.5979 17.6 46.5919 18.095C46.5859 18.631 46.5569 19.167 46.5099 19.701C45.9209 26.313 42.9019 32.61 39.3469 38.425C35.8699 44.113 31.6299 49.785 25.8619 52.421C23.9549 53.293 21.6869 53.831 19.9989 52.858C17.6849 51.525 17.4319 48.407 17.4749 46.042C17.4859 45.461 17.5239 44.88 17.5839 44.301C18.4729 35.741 22.8119 27.632 28.2419 20.646C31.4099 16.57 35.1789 12.527 39.8739 11.063C40.6129 10.832 41.1999 10.692 42.1149 10.703ZM41.9809 11.875C38.7019 11.927 35.7579 14.357 33.1509 16.882C26.2969 23.519 21.2459 32.346 19.2139 41.603C19.0569 42.32 18.9249 43.042 18.8279 43.769C18.7529 44.332 18.6979 44.898 18.6689 45.466C18.6459 45.918 18.6379 46.371 18.6519 46.824C18.6619 47.178 18.6849 47.532 18.7239 47.884C18.7529 48.153 18.7919 48.421 18.8409 48.687C18.8779 48.884 18.9209 49.08 18.9709 49.275C19.0119 49.433 19.0579 49.59 19.1099 49.746C19.5189 50.979 20.5729 52.157 21.9879 52.196C25.2889 52.286 28.3969 49.879 31.0839 47.263C35.8009 42.672 39.3159 36.903 42.0619 30.839C44.2779 25.943 46.3049 20.621 45.1729 15.232C45.1299 15.028 45.0799 14.826 45.0229 14.626C44.9759 14.463 44.9229 14.302 44.8649 14.143C44.4249 12.944 43.3899 11.872 41.9809 11.875Z" fill="#00D8FF"/>
<path fill-rule="evenodd" clip-rule="evenodd" d="M22.109 10.7469C25.673 10.8159 28.874 13.2349 31.716 15.9439C36.902 20.8869 40.727 27.1749 43.629 33.7929C45.877 38.9199 47.945 44.6749 46.107 50.0849C45.528 51.7899 44.063 53.3499 42.11 53.3899C38.529 53.4619 35.21 50.8579 32.33 48.0549C25.105 41.0209 19.741 31.7349 17.903 21.8869C17.771 21.1829 17.666 20.4729 17.594 19.7599C17.535 19.1779 17.498 18.5929 17.488 18.0079C17.48 17.5359 17.49 17.0639 17.523 16.5939C17.545 16.2799 17.577 15.9679 17.62 15.6569C17.661 15.3649 17.713 15.0739 17.778 14.7859C17.821 14.5949 17.869 14.4059 17.924 14.2179C18.463 12.3749 19.865 10.7329 22.109 10.7469ZM21.974 11.9199C19.887 11.9659 18.932 14.4269 18.74 16.1539C18.701 16.5079 18.677 16.8649 18.666 17.2219C18.652 17.6779 18.658 18.1349 18.681 18.5909C19.009 25.1899 21.959 31.5699 25.519 37.4119C28.871 42.9119 32.919 48.3899 38.487 51.2059C40.095 52.0189 42.049 52.6579 43.438 51.8899C45.18 50.9259 45.394 48.6289 45.487 46.9169C45.512 46.4509 45.515 45.9829 45.5 45.5159C45.482 44.9299 45.436 44.3449 45.367 43.7629C44.725 38.3259 42.317 33.1809 39.551 28.3189C36.109 22.2709 31.892 16.2429 25.924 13.0939C24.688 12.4419 23.35 11.9089 21.974 11.9199Z" fill="#00D8FF"/>
</g>
<defs>
<clipPath id="clip0_111_56">
<rect width="64" height="64" fill="white"/>
</clipPath>
</defs>
</svg>
