<svg width="52" height="52" viewBox="0 0 52 52" fill="none" xmlns="http://www.w3.org/2000/svg">
<path d="M14.625 22.2626C16.1417 16.1959 19.9333 13.1626 26 13.1626C35.1 13.1626 36.2375 19.9876 40.7875 21.1251C43.8208 21.8834 46.475 20.7459 48.75 17.7126C47.2333 23.7793 43.4417 26.8126 37.375 26.8126C28.275 26.8126 27.1375 19.9876 22.5875 18.8501C19.5542 18.0918 16.9 19.2293 14.625 22.2626ZM3.25 35.9126C4.76667 29.8459 8.55833 26.8126 14.625 26.8126C23.725 26.8126 24.8625 33.6376 29.4125 34.7751C32.4458 35.5334 35.1 34.3959 37.375 31.3626C35.8583 37.4293 32.0667 40.4626 26 40.4626C16.9 40.4626 15.7625 33.6376 11.2125 32.5001C8.17917 31.7418 5.525 32.8793 3.25 35.9126Z" fill="#44A8B3"/>
</svg>
