<svg width="42" height="42" viewBox="0 0 42 42" fill="none" xmlns="http://www.w3.org/2000/svg">
<g clip-path="url(#clip0_111_142)">
<path fill-rule="evenodd" clip-rule="evenodd" d="M5.25 7.875V31.5C5.25 32.9503 6.42469 34.125 7.875 34.125H15.75C17.2003 34.125 18.375 32.9503 18.375 31.5V7.875C18.375 6.42469 17.2003 5.25 15.75 5.25H7.875C6.42469 5.25 5.25 6.42469 5.25 7.875ZM23.625 7.875V21C23.625 22.4503 24.7997 23.625 26.25 23.625H34.125C35.5753 23.625 36.75 22.4503 36.75 21V7.875C36.75 6.42469 35.5753 5.25 34.125 5.25H26.25C24.7997 5.25 23.625 6.42469 23.625 7.875ZM5.25 0C2.35069 0 0 2.352 0 5.25V36.75C0 39.6493 2.352 42 5.25 42H36.75C39.6493 42 42 39.648 42 36.75V5.25C42 2.35069 39.648 0 36.75 0H5.25Z" fill="#007AC2"/>
</g>
<defs>
<clipPath id="clip0_111_142">
<rect width="42" height="42" fill="white"/>
</clipPath>
</defs>
</svg>
